<?xml version="1.0" standalone="no"?>
<!DOCTYPE svg PUBLIC "-//W3C//DTD SVG 20010904//EN"
 "http://www.w3.org/TR/2001/REC-SVG-20010904/DTD/svg10.dtd">
<svg version="1.0" xmlns="http://www.w3.org/2000/svg"
 width="512.000000pt" height="512.000000pt" viewBox="0 0 512.000000 512.000000"
 preserveAspectRatio="xMidYMid meet">

<g transform="translate(0.000000,512.000000) scale(0.100000,-0.100000)"
fill="#000000" stroke="none">
<path d="M2366 4049 c-609 -64 -1118 -468 -1320 -1047 -43 -125 -78 -300 -70
-351 10 -60 55 -132 105 -170 l47 -34 -35 -35 c-50 -50 -66 -94 -66 -183 -1
-63 4 -86 26 -130 l26 -53 -39 -42 c-52 -56 -75 -134 -67 -225 3 -37 13 -82
22 -101 22 -42 72 -95 108 -114 l27 -15 0 -122 c0 -112 2 -128 26 -175 43 -86
144 -156 262 -181 74 -16 2169 -16 2244 0 113 24 208 86 256 167 25 43 27 57
30 174 l4 127 35 12 c46 15 109 72 134 122 50 98 31 253 -42 331 l-39 43 24
44 c65 120 29 290 -75 353 l-39 22 36 35 c77 73 95 148 69 284 -72 385 -311
759 -628 982 -310 218 -696 321 -1061 282z m434 -148 c504 -102 914 -462 1078
-946 32 -93 62 -225 62 -270 0 -39 -27 -83 -63 -105 -31 -20 -60 -20 -1352
-20 -1482 0 -1370 -6 -1409 73 -18 37 -18 42 -2 130 111 605 618 1078 1242
1157 102 13 334 3 444 -19z m901 -1490 c-21 -38 -113 -110 -167 -130 -118 -45
-264 -20 -361 60 -26 21 -56 39 -67 39 -10 0 -43 -18 -72 -41 -74 -57 -138
-79 -229 -79 -87 0 -145 19 -224 73 -61 43 -71 42 -138 -9 -63 -48 -138 -67
-237 -62 -86 5 -114 15 -203 75 -57 39 -46 41 -154 -25 -74 -44 -120 -55 -215
-50 -62 3 -94 11 -136 31 -53 26 -138 104 -138 127 0 7 381 10 1175 10 1148 0
1175 0 1166 -19z m-221 -455 c-66 -63 -547 -499 -556 -502 -8 -4 -1013 465
-1080 504 -14 8 199 11 816 12 719 0 832 -2 820 -14z m-810 -533 c130 -62 249
-113 264 -113 22 0 51 20 123 88 52 48 111 99 131 115 l36 27 298 0 298 0 0
-109 c0 -132 -14 -159 -105 -206 l-59 -30 -1116 0 -1116 0 -59 30 c-91 47
-105 74 -105 207 l0 108 588 -2 587 -3 235 -112z"/>
<path d="M2911 3764 c-12 -15 -21 -32 -21 -38 0 -26 33 -56 94 -84 90 -42 170
-99 248 -176 36 -36 73 -66 81 -66 25 0 67 40 67 64 0 69 -176 220 -346 297
-78 36 -97 36 -123 3z"/>
<path d="M3410 3380 c-33 -33 -24 -60 41 -135 131 -151 189 -271 233 -487 8
-36 32 -58 65 -58 63 0 75 54 41 185 -41 161 -136 333 -253 458 -58 63 -91 73
-127 37z"/>
</g>
</svg>
